<?xml version="1.0" standalone="no"?>
<!DOCTYPE svg PUBLIC "-//W3C//DTD SVG 20010904//EN"
 "http://www.w3.org/TR/2001/REC-SVG-20010904/DTD/svg10.dtd">
<svg version="1.0" xmlns="http://www.w3.org/2000/svg"
 width="113.000000pt" height="113.000000pt" viewBox="0 0 113.000000 113.000000"
 preserveAspectRatio="xMidYMid meet">
<metadata>
Created by potrace 1.14, written by Peter Selinger 2001-2017
</metadata>
<g transform="translate(0.000000,113.000000) scale(0.100000,-0.100000)"
fill="#000000" stroke="none">
<path d="M516 917 c-39 -29 -16 -120 28 -109 14 4 17 2 11 -9 -8 -12 -6 -12 8
-1 9 8 22 10 28 6 8 -4 9 -3 5 4 -4 7 -3 12 2 12 5 0 14 18 20 41 6 22 8 38 5
36 -2 -3 -13 3 -24 14 -22 22 -57 25 -83 6z"/>
<path d="M364 766 c-30 -14 -104 -82 -104 -97 0 -4 -5 -20 -11 -36 -7 -15 -11
-44 -10 -63 2 -37 1 -60 -2 -100 -2 -14 1 -35 5 -46 4 -12 4 -25 1 -28 -4 -3
-6 -34 -5 -68 1 -35 2 -76 2 -93 l1 -30 109 1 c97 1 116 4 165 28 30 15 55 34
55 42 0 8 4 14 9 14 5 0 12 14 16 31 8 34 17 39 68 42 19 1 33 4 31 6 -2 2 14
16 34 31 59 43 80 80 81 148 1 24 5 31 14 26 9 -6 9 -5 0 7 -6 8 -13 26 -15
39 -9 60 -58 118 -120 145 -49 20 -278 21 -324 1z m126 -115 c10 -2 5 -156 -5
-162 -5 -4 -29 -6 -52 -5 l-43 2 0 -62 0 -63 40 -3 c38 -3 39 -4 19 -16 -15
-10 -19 -10 -14 -1 6 8 4 10 -6 3 -22 -13 -58 -12 -63 3 -3 7 -1 13 5 13 6 0
7 5 3 12 -11 17 -10 68 0 68 6 0 5 5 -1 11 -6 6 -7 25 -3 50 4 22 4 42 -1 44
-7 5 -1 37 16 76 11 27 55 40 105 30z m161 -14 c9 -7 21 -21 27 -33 21 -39 -7
-111 -43 -111 -12 0 -15 16 -15 79 0 80 3 86 31 65z"/>
</g>
</svg>
